<svg xmlns="http://www.w3.org/2000/svg" xmlns:xlink="http://www.w3.org/1999/xlink" width="1080" zoomAndPan="magnify" viewBox="0 0 810 809.999993" height="1080" preserveAspectRatio="xMidYMid meet" version="1.0"><defs><clipPath id="4f34c27604"><path d="M 12 0 L 798 0 L 798 798 L 12 798 Z M 12 0 " clip-rule="nonzero"/></clipPath><clipPath id="4ba60bebc9"><path d="M 12 75 L 12 723.308594 C 12 764.730469 45.578125 798.308594 87 798.308594 L 723 798.308594 C 764.421875 798.308594 798 764.730469 798 723.308594 L 798 75 C 798 33.578125 764.421875 0 723 0 L 87 0 C 45.578125 0 12 33.578125 12 75 Z M 12 75 " clip-rule="nonzero"/></clipPath></defs><path stroke-linecap="butt" transform="matrix(0.486105, -0.57114, 0.57114, 0.486105, 403.856287, 398.179834)" fill="none" stroke-linejoin="miter" d="M 0.000933492 2.001712 L 383.607503 2.000679 " stroke="#000000" stroke-width="4" stroke-opacity="1" stroke-miterlimit="4"/><g clip-path="url(#4f34c27604)"><g clip-path="url(#4ba60bebc9)"><path fill="#000000" d="M 797.867188 798 L 723.683594 798 L 723.683594 172.378906 L 617.101562 172.378906 L 398.269531 410.0625 L 138.542969 113.445312 L 138.542969 0 L 398.269531 293.960938 L 582.222656 98.046875 L 797.867188 98.046875 Z M 658.882812 262.992188 L 602.050781 262.992188 L 398.980469 504.566406 L 16.734375 56.808594 L 16.734375 60.882812 L 14.433594 56.808594 L 14.433594 166.359375 L 12.132812 166.359375 L 14.433594 169.015625 L 14.433594 797.824219 L 88.617188 797.824219 L 88.617188 256.089844 L 399.15625 619.78125 L 584.699219 399.089844 L 584.699219 797.824219 L 658.882812 797.824219 Z M 212.726562 465.277344 L 138.542969 382.453125 L 138.542969 797.824219 L 212.726562 797.824219 Z M 212.726562 465.277344 " fill-opacity="1" fill-rule="nonzero"/></g></g></svg>